HIERARCHY
ROOT SpineBase
{
  OFFSET 0.000000 0.000000 0.000000
  CHANNELS 6 Xposition Yposition Zposition Zrotation Xrotation Yrotation
  JOINT SpineMid
  {
    OFFSET 0.000000 31.110498 0.000000
    CHANNELS 3 Zrotation Xrotation Yrotation
    JOINT SpineShoulder
    {
      OFFSET -0.209662 23.063752 -1.001762
      CHANNELS 3 Zrotation Xrotation Yrotation
      JOINT Neck
      {
        OFFSET 0.028406 7.653529 -0.672905
        CHANNELS 3 Zrotation Xrotation Yrotation
        JOINT Head
        {
          OFFSET 2.597579 9.190448 5.785404
          CHANNELS 3 Zrotation Xrotation Yrotation
          End Site
          {
            OFFSET 0 0 0
          }
        }
      }
      JOINT ShoulderLeft
      {
        OFFSET -0.414453 -4.146741 -11.992681
        CHANNELS 3 Zrotation Xrotation Yrotation
        JOINT ElbowLeft
        {
          OFFSET 10.624786 -23.093227 -5.621835
          CHANNELS 3 Zrotation Xrotation Yrotation
          JOINT WristLeft
          {
            OFFSET 6.386128 -23.027637 5.205482
            CHANNELS 3 Zrotation Xrotation Yrotation
            JOINT HandLeft
            {
              OFFSET 0.123748 -8.006187 4.236491
              CHANNELS 3 Zrotation Xrotation Yrotation
              JOINT HandTipLeft
              {
                OFFSET 2.774925 -6.969586 1.776368
                CHANNELS 3 Zrotation Xrotation Yrotation
                End Site
                {
                  OFFSET 0 0 0
                }
              }
              JOINT ThumbLeft
              {
                OFFSET -5.034554 -0.555501 -1.743815
                CHANNELS 3 Zrotation Xrotation Yrotation
                End Site
                {
                  OFFSET 0 0 0
                }
              }
            }
          }
        }
      }
      JOINT ShoulderRight
      {
        OFFSET 9.149296 -5.690714 -11.804164
        CHANNELS 3 Zrotation Xrotation Yrotation
        JOINT ElbowRight
        {
          OFFSET 4.065277 -28.763940 -4.660386
          CHANNELS 3 Zrotation Xrotation Yrotation
          JOINT WristRight
          {
            OFFSET -4.211274 -29.613528 -0.347408
            CHANNELS 3 Zrotation Xrotation Yrotation
            JOINT HandRight
            {
              OFFSET -1.826708 -6.821651 -1.418785
              CHANNELS 3 Zrotation Xrotation Yrotation
              JOINT HandTipRight
              {
                OFFSET -6.351668 -0.125128 1.786884
                CHANNELS 3 Zrotation Xrotation Yrotation
                End Site
                {
                  OFFSET 0 0 0
                }
              }
              JOINT ThumbRight
              {
                OFFSET -5.981430 -1.146350 0.972569
                CHANNELS 3 Zrotation Xrotation Yrotation
                End Site
                {
                  OFFSET 0 0 0
                }
              }
            }
          }
        }
      }
    }
  }
  JOINT HipLeft
  {
    OFFSET -5.158886 -0.688442 -4.865092
    CHANNELS 3 Zrotation Xrotation Yrotation
    JOINT KneeLeft
    {
      OFFSET -8.353970 -33.455094 14.707194
      CHANNELS 3 Zrotation Xrotation Yrotation
      JOINT AnkleLeft
      {
        OFFSET -1.180077 -31.033511 3.510221
        CHANNELS 3 Zrotation Xrotation Yrotation
        JOINT FootLeft
        {
          OFFSET 1.347175 -3.769581 -13.125358
          CHANNELS 3 Zrotation Xrotation Yrotation
          End Site
          {
            OFFSET 0 0 0
          }
        }
      }
    }
  }
  JOINT HipRight
  {
    OFFSET 6.462263 2.755152 -2.084210
    CHANNELS 3 Zrotation Xrotation Yrotation
    JOINT KneeRight
    {
      OFFSET -0.743629 -37.618208 -3.345285
      CHANNELS 3 Zrotation Xrotation Yrotation
      JOINT AnkleRight
      {
        OFFSET -2.726343 -31.812534 2.250300
        CHANNELS 3 Zrotation Xrotation Yrotation
        JOINT FootRight
        {
          OFFSET 1.199589 -3.671499 -13.107353
          CHANNELS 3 Zrotation Xrotation Yrotation
          End Site
          {
            OFFSET 0 0 0
          }
        }
      }
    }
  }
}
MOTION
Frames: 8
Frame Time: 0.033333
-65.673539 70.525318 299.334423 -0.000000 0.000000 -13.457527 -0.000000 0.000000 13.457527 -0.000000 0.000000 0.000000 -0.000000 0.000000 0.000000 0.000000 0.000000 0.000000 -0.000000 0.000000 0.000000 -0.000000 0.000000 0.000000 -0.000000 0.000000 0.000000 -0.000000 0.000000 0.000000 0.000000 0.000000 0.000000 0.000000 0.000000 0.000000 -0.000000 0.000000 0.000000 -0.000000 0.000000 0.000000 -0.000000 0.000000 0.000000 -0.000000 0.000000 0.000000 0.000000 0.000000 0.000000 0.000000 0.000000 0.000000 -0.000000 0.000000 13.457527 -0.000000 0.000000 0.000000 -0.000000 0.000000 0.000000 0.000000 0.000000 0.000000 -0.000000 0.000000 13.457527 -0.000000 0.000000 0.000000 -0.000000 0.000000 0.000000 0.000000 0.000000 0.000000
-65.744775 70.494322 299.323969 0.192885 0.009193 -11.429485 -0.187239 -0.047233 11.429393 -0.000000 0.000000 0.000000 2.223250 -3.177433 -0.450073 0.000000 0.000000 0.000000 0.540779 0.954948 0.301941 -1.093630 -2.013700 -0.742549 -1.122621 1.735018 -0.413168 -0.293861 0.018995 0.646920 0.000000 0.000000 0.000000 0.000000 0.000000 0.000000 0.673087 -0.600505 -0.190404 0.082461 -0.006457 0.271116 -6.672349 -11.943384 3.979557 17.344296 13.316756 -12.839248 0.000000 0.000000 0.000000 0.000000 0.000000 0.000000 -0.187239 -0.047233 11.429393 -0.000000 0.000000 0.000000 -0.699781 -0.155012 2.396433 0.000000 0.000000 0.000000 -0.187239 -0.047233 11.429393 -0.000000 0.000000 0.000000 -0.686712 -0.180193 2.409547 0.000000 0.000000 0.000000
-65.794855 70.458430 299.316711 0.367170 0.011306 -10.593542 -0.358834 -0.078613 10.593260 -0.000000 0.000000 0.000000 4.065539 -5.831966 -0.734300 0.000000 0.000000 0.000000 1.765011 1.967936 0.440509 -3.064994 -3.649402 -1.323724 -1.765059 2.965426 -0.707927 -0.625169 0.092446 1.196412 0.000000 0.000000 0.000000 0.000000 0.000000 0.000000 1.397690 -1.265522 -0.389921 0.218989 -0.126743 0.584437 -12.741460 -25.473893 7.270105 44.284822 20.565244 -36.064054 0.000000 0.000000 0.000000 0.000000 0.000000 0.000000 -0.742948 0.813062 10.264259 0.219117 -0.945839 0.333272 -1.364499 -0.347342 4.689899 0.000000 0.000000 0.000000 0.497031 -0.259864 10.530544 -0.808339 0.334583 0.067604 -1.336929 -0.392348 4.713283 0.000000 0.000000 0.000000
-65.823778 70.417641 299.312649 0.522909 0.006371 -11.059845 -0.511976 -0.106563 11.059340 -0.000000 0.000000 0.000000 5.554602 -7.978395 -0.905181 0.000000 0.000000 0.000000 3.679163 3.023998 0.390222 -5.912797 -4.960934 -1.784568 -1.934908 3.763489 -0.913858 -0.942466 0.212279 1.665686 0.000000 0.000000 0.000000 0.000000 0.000000 0.000000 2.161551 -1.986451 -0.593639 0.439180 -0.386878 0.941420 -16.981228 -37.223929 9.607216 72.328071 12.572417 -60.830789 0.000000 0.000000 0.000000 0.000000 0.000000 0.000000 -1.089096 0.912319 10.621461 0.892747 -1.991637 0.550427 -2.497284 0.318084 6.819499 0.000000 0.000000 0.000000 0.611010 -0.084048 10.966601 -1.106767 0.191500 0.096456 -1.948933 -0.632436 6.907340 0.000000 0.000000 0.000000
-65.831545 70.371956 299.311783 0.660165 -0.005578 -12.884924 -0.644787 -0.141772 12.884158 -0.000000 0.000000 0.000000 6.714269 -9.640895 -1.003134 0.000000 0.000000 0.000000 6.267941 4.096284 0.129274 -9.631856 -5.968554 -2.162265 -1.623787 4.167720 -1.046803 -1.207891 0.371917 2.066995 0.000000 0.000000 0.000000 0.000000 0.000000 0.000000 2.948089 -2.749815 -0.795887 0.781015 -0.821363 1.344007 -18.670119 -44.898871 11.475355 89.588288 -2.892757 -73.768811 0.000000 0.000000 0.000000 0.000000 0.000000 0.000000 -1.432025 0.774737 12.372571 1.185783 -2.110243 0.646376 -3.182658 0.228228 8.895340 0.000000 0.000000 0.000000 0.615571 0.315973 12.760624 -1.330339 -0.167997 0.119667 -2.521805 -0.896635 8.989600 0.000000 0.000000 0.000000
-65.818155 70.321374 299.314114 0.779006 -0.024507 -16.053823 -0.755406 -0.191871 16.052725 -0.000000 0.000000 0.000000 7.563463 -10.844567 -1.057833 0.000000 0.000000 0.000000 9.486482 5.145338 -0.355572 -14.204192 -6.663288 -2.491412 -0.806229 4.189835 -1.111052 -1.397266 0.566039 2.407376 0.000000 0.000000 0.000000 0.000000 0.000000 0.000000 3.737123 -3.537552 -0.990758 1.290812 -1.473257 1.795839 -17.805465 -48.080243 13.306227 98.827363 -13.781186 -76.133612 0.000000 0.000000 0.000000 0.000000 0.000000 0.000000 -1.742400 0.379914 15.500711 1.476992 -1.963014 0.695023 -3.795155 0.050844 10.863708 0.000000 0.000000 0.000000 0.458389 0.934346 15.898718 -1.475996 -0.750409 0.136476 -3.055301 -1.181433 10.959443 0.000000 0.000000 0.000000
-65.710260 70.317151 299.288980 0.932215 -0.015948 -22.350162 -0.868259 -0.339728 22.347718 -0.000000 0.000000 0.000000 6.784455 -10.523031 -0.721620 0.000000 0.000000 0.000000 14.306798 6.466995 -1.245918 -21.554403 -7.002740 -3.069010 1.044484 3.301856 -1.235841 -0.109778 0.860154 3.134628 0.000000 0.000000 0.000000 0.000000 0.000000 0.000000 4.131902 -4.127282 -1.105154 3.155160 -3.417588 2.374633 -16.562955 -45.253096 14.501188 106.446275 -16.530949 -69.403178 0.000000 0.000000 0.000000 0.000000 0.000000 0.000000 -1.968136 -0.539717 21.801222 1.761785 -1.524651 0.673920 -4.299095 1.942410 12.763443 0.000000 0.000000 0.000000 -0.375308 1.953042 22.184682 -1.322794 -1.936646 0.133736 -3.616560 -1.544843 13.072319 0.000000 0.000000 0.000000
-65.644258 70.257405 299.286450 1.041729 -0.040338 -33.033115 -0.895352 -0.534036 33.029308 -0.000000 0.000000 0.000000 7.107718 -10.962425 -0.747520 0.000000 0.000000 0.000000 18.988188 7.419784 -2.277839 -28.535595 -6.943154 -3.538454 3.521981 3.091594 -0.945224 -0.356863 0.097319 3.035789 0.000000 0.000000 0.000000 0.000000 0.000000 0.000000 4.942215 -4.742766 -1.267861 4.595664 -5.379488 3.114003 -13.967144 -36.483411 13.646596 107.693596 -9.748063 -60.158998 0.000000 0.000000 0.000000 0.000000 0.000000 0.000000 -1.383909 -2.440451 32.715009 2.028476 -0.023065 0.395430 -4.820746 -1.086187 15.041433 0.000000 0.000000 0.000000 -1.884621 3.603464 32.850213 -1.414736 -4.012259 0.156051 -4.122792 -1.908222 15.021930 0.000000 0.000000 0.000000
